<?xml version="1.0" encoding="utf-8"?>
<!-- Generator: Adobe Illustrator 16.0.0, SVG Export Plug-In . SVG Version: 6.00 Build 0)  -->
<!DOCTYPE svg PUBLIC "-//W3C//DTD SVG 1.1//EN" "http://www.w3.org/Graphics/SVG/1.1/DTD/svg11.dtd">
<svg version="1.1" id="Layer_1" xmlns="http://www.w3.org/2000/svg" xmlns:xlink="http://www.w3.org/1999/xlink" x="0px" y="0px"
	 width="409.765px" height="1080px" viewBox="0 0 409.765 1080" enable-background="new 0 0 409.765 1080" xml:space="preserve">
<g>
	<path fill-rule="evenodd" clip-rule="evenodd" d="M260.047,29.831c19.725,20.643,15.46,47.426,16.976,72.063
		c1.922,31.216,0.464,62.646,0.464,93.986c13.929,1.604,30.056,1.535,45.073,5.586c33.944,9.155,50.013,37.542,35.721,69.205
		c-10.149,22.485-26.087,43.47-43.368,61.323c-17.708,18.296-47.576,10.367-52.059-12.014c-1.654-8.219,3.432-18.589,7.517-26.968
		c5.056-10.374,12.259-19.696,16.518-34.089c-8.495,1.182-17.926,0.371-25.34,3.844c-68.389,32.066-127.049,75.546-155.455,148.534
		c-7.011,18.006-7.102,40.945-3.421,60.293c4.564,23.958,30.792,35.584,65.088,32.279c49.904-4.799,98.459-15.554,141.61-42.726
		c19.435-12.235,37.491-26.632,56.563-39.465c4.287-2.879,11.804-6.033,15.002-4.178c4.02,2.328,6.944,9.604,7.168,14.885
		c1.162,26.795-15.003,45.272-33.016,61.755c-12.108,11.081-26.254,19.935-39.777,30.004c4.426,2.493,9.286,5.208,14.132,7.966
		c22.991,13.062,30.528,32.265,23.534,57.997c-7.248,26.688-22.787,47.944-43.252,65.551
		c-20.538,17.666-49.868,11.536-53.735-11.446c-1.415-8.423,3.642-18.667,7.748-27.104c5.02-10.294,12.152-19.558,18.361-29.272
		c-0.813-1.581-1.632-3.155-2.452-4.729c-8.597,1.27-18.129,0.558-25.645,4.121c-68.262,32.348-126.981,75.962-155.176,149.017
		c-7.08,18.354-5.966,41.887-2.227,61.838c3.929,20.942,26.316,32.761,62.839,30.149c51.326-3.665,100.795-16.005,145.092-43.492
		c18.521-11.499,35.554-25.376,53.364-38.021c4.201-2.981,8.813-5.375,12.986-7.885c13.449,10.019,11.781,21.981,8.089,34.407
		c-8.038,27.118-27.111,46.046-49.811,60.09c-23.382,14.473-48.396,27.096-74.12,36.724c-15.931,5.956-19.464,14.574-20.109,29.374
		c-1.603,36.649-3.519,73.344-7.421,109.798c-1.066,10.012-8.517,20.022-14.996,28.547c-5.201,6.84-13.442,11.331-20.189,17.033
		c-14.001,11.833-26.973,9.315-32.896-8.177c-3.878-11.446-5.84-24.02-6.086-36.142c-0.758-37.317-0.276-74.657-0.276-108.73
		c-25.17-6.899-49.331-11.281-71.672-20.205c-16.774-6.702-30.803-18.384-41.477-32.854c-5.337-7.236-9.852-15.054-13.778-23.134
		c-4.512-9.285-6.41-18.115-7.804-28.354c-1.418-10.42-1.862-21.152-0.552-31.575c2.119-16.869,8.551-32.866,14.446-48.687
		c10.334-27.735,23.695-54.569,42.897-77.292c20.004-23.672,42.7-45.079,63.851-67.134c-6.413-1.233-14.498-2.147-22.203-4.382
		c-41.782-12.086-75.734-34.662-86.217-79.071c-7.192-30.473-3.569-61.933,7.32-92.049
		c28.159-77.889,79.887-134.765,152.734-172.079c-0.591-4.009-1.774-7.429-1.484-10.716c3.21-36.29,10.255-72.668,9.076-108.79
		c-1.368-41.931,25.22-58.649,54.71-75.61C255.295,29.831,257.675,29.831,260.047,29.831z"/>
</g>
</svg>
