<?xml version="1.0" encoding="utf-8"?>
<!-- Generator: Adobe Illustrator 26.5.0, SVG Export Plug-In . SVG Version: 6.00 Build 0)  -->
<svg version="1.1" id="Layer_1" xmlns="http://www.w3.org/2000/svg" xmlns:xlink="http://www.w3.org/1999/xlink" x="0px" y="0px"
	 viewBox="0 0 612 622.25" style="enable-background:new 0 0 612 622.25;" xml:space="preserve">
<style type="text/css">
	.st0{fill:#FFFFFF;}
	.st1{fill:#361560;}
</style>
<path class="st0" d="M5.88,4.94V347.3l43.25,20.08V256.52h46.82v132.59l46.82,21.73V256.52h46.83v176.06l46.82,21.73v-197.8h46.82
	v219.53l23.24,10.79l23.58-10.94V256.52h46.82v197.63l46.82-21.73v-175.9h46.82v154.17l46.82-21.73V256.52h46.82v110.7l42.92-19.92
	V4.94H5.88z M69.31,226.46c-0.9,1.78-2.11,3.32-3.62,4.63c-1.5,1.32-3.36,2.36-5.59,3.13c-2.21,0.77-4.87,1.16-7.96,1.16
	c-2.97,0-5.78-0.44-8.42-1.33c-2.64-0.89-4.95-2.24-6.92-4.05c-1.97-1.82-3.53-4.1-4.69-6.86c-1.16-2.77-1.73-6.02-1.73-9.76
	c0-3.85,0.56-7.23,1.68-10.1c1.12-2.87,2.61-5.26,4.48-7.15c1.88-1.89,4.02-3.3,6.43-4.23c2.41-0.92,4.91-1.39,7.49-1.39
	c5.53,0,9.69,0.95,12.42,3.03l1.13-2.1h7.07v14.07l-7.47,0.58c-0.77-5.56-3.56-8.35-8.39-8.35c-1.82,0-3.35,0.29-4.61,0.87
	c-1.25,0.57-2.27,1.47-3.04,2.69c-0.77,1.22-1.32,2.77-1.65,4.66c-0.33,1.89-0.49,4.17-0.49,6.84c0,2.54,0.22,4.72,0.67,6.51
	c0.44,1.79,1.03,3.26,1.76,4.4c0.74,1.14,1.59,1.96,2.55,2.46c0.97,0.51,1.97,0.75,3.01,0.75c1.62,0,3.04-0.11,4.25-0.34
	c1.22-0.23,2.28-0.64,3.19-1.22c0.9-0.57,1.66-1.34,2.28-2.28c0.61-0.95,1.16-2.13,1.62-3.56l6.6,1.33
	C70.91,222.81,70.23,224.68,69.31,226.46z M118.21,222.34c-0.89,2.78-2.25,5.13-4.08,7.07c-1.84,1.93-4.16,3.41-6.98,4.43
	c-2.82,1.03-6.15,1.53-10.02,1.53c-3.2,0-6.12-0.35-8.74-1.07c-2.63-0.71-4.88-1.92-6.77-3.59c-1.89-1.68-3.36-3.89-4.4-6.66
	c-1.04-2.76-1.56-6.16-1.56-10.22c0-3.71,0.41-7,1.22-9.9s2.11-5.34,3.91-7.33c1.79-1.98,4.11-3.5,6.94-4.54
	c2.84-1.04,6.26-1.56,10.28-1.56c3.16,0,6.06,0.37,8.71,1.1c2.64,0.74,4.92,1.98,6.83,3.71c1.92,1.74,3.39,4.04,4.43,6.89
	c1.04,2.86,1.56,6.43,1.56,10.71C119.55,216.42,119.1,219.57,118.21,222.34z M173.45,197.5c-3.43,0-5.15,0.89-5.15,2.67v34.27
	h-17.31l-14.48-30.1v21.36c0,1.78,1.72,2.67,5.15,2.67v6.08h-17.83v-6.08c3.43,0,5.16-0.89,5.16-2.67v-25.53
	c0-1.78-1.72-2.67-5.16-2.67v-6.08h22.06l14.87,30.91v-22.17c0-1.78-1.72-2.67-5.16-2.67v-6.08h17.84V197.5z M215.52,227.18
	c-0.84,1.75-1.98,3.24-3.45,4.46c-1.46,1.22-3.2,2.15-5.18,2.78c-1.98,0.64-4.14,0.95-6.45,0.95c-2.36,0-4.31-0.15-5.85-0.45
	c-1.54-0.31-2.82-0.64-3.85-1.02c-1.02-0.38-1.88-0.72-2.58-1.03c-0.69-0.3-1.35-0.45-1.97-0.45c-0.54,0-1.01,0.15-1.42,0.45
	c-0.41,0.3-0.76,0.83-1.07,1.57h-6.54v-14.76l6.54-0.34c0.24,3,1.59,5.17,4.05,6.48c2.47,1.31,5.73,1.97,9.79,1.97
	c2.31,0,4.15-0.31,5.53-0.93c1.37-0.62,2.06-1.82,2.06-3.59c0-1.08-0.51-1.9-1.54-2.46c-1.02-0.56-2.34-1.01-3.96-1.36
	c-1.62-0.35-3.43-0.67-5.44-0.96c-2.01-0.29-4-0.7-5.97-1.24c-2.16-0.62-3.95-1.36-5.38-2.23c-1.43-0.87-2.57-1.89-3.42-3.04
	c-0.85-1.16-1.45-2.48-1.79-3.96c-0.35-1.49-0.52-3.16-0.52-5.01c0-1.7,0.29-3.31,0.87-4.84c0.58-1.53,1.47-2.86,2.67-3.99
	c1.2-1.14,2.7-2.04,4.51-2.7c1.82-0.65,3.97-0.98,6.49-0.98c2.24,0,4.1,0.15,5.58,0.44c1.49,0.28,2.73,0.61,3.71,0.98
	c0.98,0.37,1.79,0.7,2.43,0.99c0.64,0.28,1.23,0.43,1.77,0.43c0.77,0,1.38-0.15,1.82-0.43c0.44-0.29,0.9-0.78,1.36-1.48h5.79v13.89
	l-6.54,0.52c-0.27-1.5-0.77-2.76-1.5-3.76c-0.74-1-1.66-1.8-2.75-2.4c-1.1-0.6-2.38-1.03-3.82-1.3c-1.45-0.28-3-0.41-4.66-0.41
	c-0.89,0-1.72,0.05-2.49,0.15c-0.77,0.09-1.45,0.27-2.02,0.51c-0.58,0.25-1.05,0.61-1.39,1.07c-0.34,0.47-0.52,1.04-0.52,1.74
	c0,1.08,0.6,1.9,1.79,2.46c1.2,0.56,2.72,1.03,4.58,1.42c1.85,0.39,3.91,0.77,6.17,1.16c2.26,0.39,4.45,0.95,6.57,1.68
	c3.05,1.04,5.36,2.6,6.93,4.67c1.56,2.06,2.34,4.84,2.34,8.31C216.76,223.41,216.35,225.42,215.52,227.18z M265.98,209.14
	l-6.37,0.17c-0.24-7.1-2.24-10.65-6.02-10.65h-2.72v27.04c0,1.78,1.74,2.67,5.21,2.67v6.08h-25.01v-6.08c3.43,0,5.15-0.89,5.15-2.67
	v-27.04h-2.77c-3.79,0-5.79,3.56-6.02,10.65l-6.37-0.17v-17.72h44.93V209.14z M295.79,197.5c-3.44,0-5.15,0.89-5.15,2.67v25.53
	c0,1.78,1.71,2.67,5.15,2.67v6.08h-25.01v-6.08c3.48,0,5.21-0.89,5.21-2.67v-25.53c0-1.78-1.73-2.67-5.21-2.67v-6.08h25.01V197.5z
	 M345.65,209.14l-6.37,0.17c-0.23-7.1-2.24-10.65-6.02-10.65h-2.72v27.04c0,1.78,1.74,2.67,5.21,2.67v6.08h-25.01v-6.08
	c3.44,0,5.16-0.89,5.16-2.67v-27.04h-2.78c-3.79,0-5.79,3.56-6.02,10.65l-6.37-0.17v-17.72h44.93V209.14z M398.16,197.5
	c-3.46,0-5.2,0.89-5.2,2.67v16.73c0,2.78-0.28,5.31-0.82,7.59c-0.54,2.28-1.5,4.21-2.86,5.82c-1.36,1.6-3.2,2.85-5.53,3.74
	c-2.31,0.88-5.27,1.33-8.86,1.33c-3.67,0-6.77-0.44-9.3-1.33c-2.53-0.89-4.58-2.14-6.14-3.74c-1.56-1.6-2.69-3.54-3.39-5.82
	c-0.69-2.28-1.03-4.81-1.03-7.59v-16.73c0-1.78-1.72-2.67-5.16-2.67v-6.08h25.65v6.08c-2.21,0-3.73,0.22-4.58,0.67
	c-0.85,0.44-1.27,1.11-1.27,2v16.73c0,1.93,0.1,3.57,0.31,4.92c0.21,1.36,0.61,2.45,1.19,3.3c0.57,0.85,1.35,1.46,2.31,1.82
	c0.97,0.37,2.21,0.55,3.71,0.55c1.5,0,2.77-0.18,3.82-0.55c1.04-0.37,1.89-0.97,2.55-1.82c0.66-0.85,1.13-1.95,1.42-3.3
	c0.29-1.35,0.44-2.99,0.44-4.92v-16.73c0-0.89-0.44-1.56-1.31-2c-0.87-0.44-2.4-0.67-4.6-0.67v-6.08h18.64V197.5z M447.14,209.14
	l-6.37,0.17c-0.23-7.1-2.24-10.65-6.02-10.65h-2.72v27.04c0,1.78,1.74,2.67,5.21,2.67v6.08h-25.01v-6.08c3.44,0,5.16-0.89,5.16-2.67
	v-27.04h-2.78c-3.79,0-5.79,3.56-6.02,10.65l-6.38-0.17v-17.72h44.93V209.14z M476.96,197.5c-3.43,0-5.15,0.89-5.15,2.67v25.53
	c0,1.78,1.72,2.67,5.15,2.67v6.08h-25.01v-6.08c3.48,0,5.22-0.89,5.22-2.67v-25.53c0-1.78-1.74-2.67-5.22-2.67v-6.08h25.01V197.5z
	 M524.44,222.34c-0.89,2.78-2.25,5.13-4.08,7.07c-1.83,1.93-4.16,3.41-6.98,4.43c-2.81,1.03-6.15,1.53-10.01,1.53
	c-3.21,0-6.12-0.35-8.74-1.07c-2.63-0.72-4.89-1.92-6.77-3.59c-1.89-1.68-3.36-3.89-4.41-6.66c-1.03-2.76-1.56-6.16-1.56-10.22
	c0-3.71,0.4-7,1.21-9.9s2.12-5.34,3.91-7.33c1.79-1.98,4.12-3.5,6.95-4.54c2.84-1.04,6.26-1.56,10.28-1.56
	c3.16,0,6.07,0.37,8.71,1.1c2.64,0.74,4.93,1.98,6.84,3.71c1.91,1.74,3.39,4.04,4.43,6.89c1.04,2.86,1.56,6.43,1.56,10.71
	C525.77,216.42,525.33,219.57,524.44,222.34z M574.52,200.17v34.27h-17.31l-14.48-30.1v21.36c0,1.78,1.72,2.67,5.16,2.67v6.08
	h-17.83v-6.08c3.43,0,5.15-0.89,5.15-2.67v-25.53c0-1.78-1.72-2.67-5.15-2.67v-6.08h22.06L567,222.34v-22.17
	c0-1.78-1.72-2.67-5.16-2.67v-6.08h17.83v6.08C576.24,197.5,574.52,198.39,574.52,200.17z M587.16,207.24
	c-0.25,0.61-0.61,1.14-1.08,1.59c-0.46,0.45-1.02,0.8-1.68,1.07c-0.65,0.26-1.38,0.4-2.17,0.4c-0.82,0-1.56-0.14-2.21-0.39
	c-0.66-0.27-1.23-0.62-1.69-1.07c-0.47-0.45-0.83-0.98-1.08-1.59c-0.25-0.61-0.38-1.26-0.38-1.96c0-0.71,0.14-1.38,0.41-2
	c0.28-0.63,0.66-1.16,1.15-1.62c0.48-0.45,1.05-0.81,1.71-1.07c0.64-0.26,1.34-0.39,2.09-0.39c0.74,0,1.44,0.13,2.08,0.38
	c0.64,0.25,1.21,0.61,1.69,1.06c0.48,0.44,0.85,0.98,1.13,1.6c0.27,0.63,0.41,1.3,0.41,2.04
	C587.54,205.98,587.41,206.63,587.16,207.24z M597.39,171.3H15.61V14.68h581.78V171.3z M100.86,55.6l-10.6,0.5
	c-0.33-6.93-3.27-10.4-8.81-10.4l-14.95,0l0,19.21l4.06,0c2.31,0,3.76-3.43,4.36-10.3l10.49,0l-1.48,32.87l-10.3,0
	c-0.73-7.13-1.98-10.69-3.76-10.69H66.5l0,15.15c0,3.04,3.47,4.55,10.4,4.55v10.4l-44.26,0l0-10.4c5.87,0,8.81-1.52,8.81-4.55
	l0-43.66c0-3.04-2.94-4.55-8.81-4.55l0-10.4l68.22,0L100.86,55.6z M178.28,107.58c-3.7,0-6.85-0.48-9.45-1.44
	c-2.61-0.96-4.75-2.24-6.44-3.86c-1.68-1.62-2.9-3.52-3.66-5.69c-0.76-2.18-1.14-4.49-1.14-6.93v-5.45c0-2.31-0.11-4.19-0.35-5.64
	s-0.63-2.57-1.19-3.37c-0.56-0.79-1.35-1.32-2.38-1.59c-1.02-0.26-2.32-0.4-3.91-0.4l-7.82,0l0,18.71c0,3.04,3.66,4.55,10.99,4.55
	v10.4l-44.85,0l0-10.3c5.87,0,8.81-1.52,8.81-4.57l0-43.74c0-3.04-2.94-4.56-8.81-4.56v-10.4l51.58,0c3.24,0,6.4,0.21,9.51,0.64
	c3.1,0.43,5.86,1.3,8.27,2.62c2.41,1.32,4.34,3.18,5.79,5.59c1.45,2.41,2.18,5.59,2.18,9.55c0,2.57-0.39,4.84-1.19,6.78
	c-0.79,1.95-1.83,3.62-3.12,5c-1.29,1.39-2.76,2.51-4.41,3.37c-1.65,0.86-3.37,1.49-5.15,1.88c3.57,0.93,6.3,2.65,8.22,5.17
	c1.91,2.52,2.87,6.33,2.87,11.43v6.86c0,1.46,0.29,2.53,0.89,3.23s1.35,1.04,2.28,1.04c0.99,0,1.78-0.35,2.38-1.05
	s0.89-1.78,0.89-3.25l0-4.81h7.23v4.56c0,2.18-0.35,4.22-1.04,6.14c-0.69,1.92-1.78,3.57-3.27,4.95c-1.48,1.39-3.35,2.49-5.59,3.32
	C184.15,107.17,181.45,107.58,178.28,107.58z M141.94,63.33l9.01,0c1.78,0,3.25-0.16,4.41-0.5c1.16-0.33,2.08-0.87,2.78-1.63
	c0.69-0.76,1.17-1.78,1.44-3.07c0.26-1.29,0.39-2.89,0.39-4.8c0-2.24-0.63-3.99-1.88-5.25c-1.25-1.25-3.63-1.88-7.13-1.88l-9.01,0
	V63.33z M246.3,43.72c-5.88,0-8.81,1.52-8.81,4.55l0,43.66c0,3.04,2.94,4.55,8.81,4.55v10.4l-42.77,0v-10.4
	c5.94,0,8.91-1.52,8.91-4.55l0-43.66c0-3.04-2.97-4.55-8.91-4.55v-10.4l42.77,0L246.3,43.72z M325.9,55.6l-12.87,0.5
	c0-6.93-3.14-10.4-9.41-10.4l-15.05,0v17.62l3.76,0c2.24,0,3.66-3.43,4.25-10.3l11.09,0l-1.48,30.89l-10.9,0
	c-0.73-7.13-1.94-10.69-3.66-10.69h-3.07v21.29l11.48,0c9.77,0,14.82-5.51,15.15-16.54l13.07,0.69l-2.38,28.22l-71.18,0l0-10.4
	c5.87,0,8.81-1.52,8.81-4.55V48.28c0-3.04-2.94-4.55-8.81-4.55v-10.4l71.18,0V55.6z M421.35,43.72c-5.88,0-8.81,1.52-8.81,4.55
	l0,58.61l-29.61,0L358.18,55.4l0,36.54c0,3.04,2.94,4.55,8.81,4.55l0,10.4l-30.49,0v-10.4c5.87,0,8.81-1.52,8.81-4.55l0-43.66
	c0-3.04-2.94-4.55-8.81-4.55v-10.4l37.72,0l25.45,52.87l0-37.92c0-3.04-2.94-4.55-8.81-4.55v-10.4l30.49,0V43.72z M427.59,33.33
	l40.69,0c6.54,0,12.11,0.41,16.73,1.24c4.62,0.83,8.39,2.48,11.29,4.95c2.9,2.48,5.03,5.99,6.38,10.55
	c1.35,4.55,2.03,10.59,2.03,18.12c0,7.86-0.68,14.29-2.03,19.31c-1.35,5.02-3.48,8.96-6.38,11.83c-2.9,2.87-6.67,4.85-11.29,5.94
	c-4.62,1.09-10.2,1.63-16.73,1.63l-40.69,0v-10.4c5.87,0,8.81-1.52,8.81-4.55V48.28c0-3.04-2.94-4.55-8.81-4.55V33.33z
	 M461.45,94.51l8.42,0c2.18,0,3.89-0.43,5.15-1.29c1.25-0.86,2.18-2.31,2.77-4.36c0.59-2.04,0.97-4.73,1.14-8.07
	c0.17-3.33,0.25-7.44,0.25-12.33c0-4.88-0.08-8.83-0.25-11.83c-0.16-3-0.54-5.31-1.14-6.93c-0.59-1.62-1.52-2.69-2.77-3.22
	c-1.25-0.53-2.97-0.79-5.15-0.79l-8.42,0L461.45,94.51z M575.8,57.09l-11.19,0.89c-0.47-2.57-1.32-4.72-2.58-6.43
	c-1.25-1.72-2.82-3.09-4.7-4.11c-1.88-1.02-4.06-1.77-6.54-2.23c-2.48-0.46-5.13-0.69-7.97-0.69c-1.52,0-2.94,0.08-4.25,0.25
	c-1.32,0.17-2.48,0.46-3.47,0.89c-0.99,0.43-1.78,1.04-2.38,1.83c-0.59,0.79-0.89,1.78-0.89,2.97c0,1.85,1.02,3.25,3.07,4.21
	c2.04,0.96,4.65,1.77,7.82,2.42c3.17,0.66,6.68,1.32,10.55,1.98c3.86,0.66,7.61,1.62,11.24,2.87c5.21,1.78,9.16,4.44,11.83,7.97
	c2.67,3.53,4.01,8.27,4.01,14.21c0,3.9-0.71,7.34-2.13,10.35c-1.42,3-3.38,5.55-5.89,7.62c-2.51,2.08-5.46,3.66-8.86,4.75
	c-3.4,1.09-7.08,1.64-11.04,1.64c-4.03,0-7.36-0.26-10-0.78c-2.64-0.52-4.83-1.1-6.58-1.75c-1.75-0.65-3.22-1.23-4.41-1.75
	c-1.19-0.52-2.31-0.78-3.37-0.78c-0.93,0-1.74,0.26-2.43,0.77c-0.69,0.51-1.3,1.41-1.83,2.7l-11.19,0V81.64l11.19-0.59
	c0.39,5.15,2.7,8.85,6.93,11.09c4.23,2.25,9.8,3.37,16.73,3.37c3.96,0,7.11-0.53,9.45-1.58s3.52-3.1,3.52-6.14
	c0-1.85-0.87-3.25-2.62-4.21s-4.01-1.73-6.78-2.33c-2.77-0.59-5.88-1.14-9.31-1.64c-3.43-0.49-6.83-1.2-10.2-2.13
	c-3.7-1.06-6.77-2.33-9.21-3.81c-2.44-1.49-4.39-3.22-5.84-5.2c-1.45-1.98-2.48-4.24-3.07-6.78c-0.59-2.54-0.89-5.4-0.89-8.56
	c0-2.9,0.49-5.66,1.48-8.27c0.99-2.61,2.51-4.88,4.55-6.83c2.04-1.95,4.62-3.48,7.72-4.6c3.1-1.12,6.8-1.68,11.09-1.68
	c3.83,0,7.01,0.25,9.55,0.74c2.54,0.5,4.65,1.06,6.34,1.69c1.68,0.63,3.07,1.19,4.15,1.68c1.09,0.49,2.1,0.74,3.02,0.74
	c1.32,0,2.36-0.25,3.12-0.74c0.76-0.49,1.54-1.34,2.32-2.52l9.9,0V57.09z M69.9,138.96c0,2.98-0.38,5.65-1.13,8.01
	c-0.76,2.36-1.91,4.36-3.47,6c-1.56,1.64-3.53,2.89-5.92,3.76c-2.39,0.87-5.22,1.3-8.51,1.3c-2.72,0-5.19-0.3-7.42-0.91
	c-2.23-0.6-4.15-1.62-5.75-3.05c-1.61-1.42-2.85-3.31-3.73-5.65c-0.89-2.34-1.33-5.23-1.33-8.68c0-3.15,0.34-5.95,1.03-8.41
	c0.69-2.46,1.79-4.53,3.31-6.22s3.49-2.97,5.9-3.86c2.41-0.88,5.32-1.33,8.73-1.33c2.69,0,5.15,0.31,7.4,0.93
	c2.24,0.62,4.18,1.67,5.8,3.15c1.62,1.48,2.88,3.43,3.76,5.85C69.46,132.3,69.9,135.33,69.9,138.96z M50.88,151.6
	c1.11,0,2.11-0.16,2.98-0.49c0.87-0.33,1.6-0.93,2.19-1.82c0.59-0.89,1.03-2.13,1.33-3.74c0.3-1.61,0.44-3.69,0.44-6.24
	c0-2.66-0.15-4.83-0.44-6.52c-0.3-1.69-0.7-3.01-1.2-3.98c-0.51-0.97-1.13-1.63-1.87-1.99c-0.74-0.36-1.55-0.54-2.43-0.54
	c-1.11,0-2.11,0.17-2.98,0.52c-0.87,0.34-1.61,0.94-2.21,1.79c-0.6,0.85-1.07,2-1.38,3.44c-0.31,1.44-0.47,3.26-0.47,5.46
	c0,3.01,0.15,5.45,0.44,7.3c0.3,1.85,0.71,3.28,1.25,4.28c0.54,1,1.18,1.67,1.92,2.01C49.18,151.43,49.99,151.6,50.88,151.6z
	 M107.42,131.79l-5.26,0.25c-0.17-3.44-1.62-5.16-4.38-5.16l-7.43,0v9.54h2.01c1.15,0,1.87-1.71,2.17-5.11h5.21l-0.74,16.32h-5.12
	c-0.36-3.54-0.98-5.31-1.87-5.31h-1.67v7.52c0,1.51,1.72,2.26,5.16,2.26l0,5.16H73.54v-5.16c2.91,0,4.38-0.75,4.38-2.26l0-21.68
	c0-1.51-1.46-2.26-4.38-2.26l0-5.16l33.87,0V131.79z M127.97,120.72l38.15,0l0,15.04l-5.41,0.15c-0.2-6.03-1.91-9.04-5.12-9.04
	h-2.31v22.96c0,1.51,1.48,2.26,4.42,2.26v5.16l-21.24,0v-5.16c2.91,0,4.37-0.75,4.37-2.26v-22.96h-2.36c-3.21,0-4.92,3.01-5.12,9.04
	l-5.41-0.15L127.97,120.72z M212.53,125.89c-2.95,0-4.42,0.75-4.42,2.26v21.68c0,1.51,1.47,2.26,4.42,2.26v5.16h-19.87v-5.16
	c2,0,3-0.75,3-2.26v-8.8h-9.14v8.8c0,1.51,1,2.26,3,2.26v5.16l-19.81,0v-5.16c2.91,0,4.38-0.75,4.38-2.26v-21.68
	c0-1.51-1.46-2.26-4.38-2.26v-5.16l19.81,0v5.16c-2,0-3,0.75-3,2.26v6.98h9.14v-6.98c0-1.51-1-2.26-3-2.26v-5.16l19.87,0V125.89z
	 M251.46,131.79l-6.39,0.25c0-3.44-1.56-5.16-4.67-5.16h-7.47v8.75l1.87,0c1.11,0,1.82-1.7,2.11-5.11h5.51l-0.73,15.34h-5.41
	c-0.36-3.54-0.97-5.31-1.82-5.31h-1.52l0,10.57h5.71c4.85,0,7.35-2.74,7.52-8.21l6.49,0.34l-1.18,14.01l-35.35,0v-5.16
	c2.91,0,4.38-0.75,4.38-2.26v-21.68c0-1.51-1.46-2.26-4.38-2.26v-5.16l35.35,0L251.46,131.79z M310.94,138.96
	c0,2.98-0.38,5.65-1.13,8.01c-0.76,2.36-1.91,4.36-3.47,6c-1.56,1.64-3.53,2.89-5.92,3.76c-2.39,0.87-5.22,1.3-8.51,1.3
	c-2.72,0-5.19-0.3-7.42-0.91c-2.23-0.6-4.15-1.62-5.75-3.05c-1.61-1.42-2.85-3.31-3.73-5.65c-0.89-2.34-1.33-5.23-1.33-8.68
	c0-3.15,0.34-5.95,1.03-8.41c0.69-2.46,1.79-4.53,3.31-6.22s3.49-2.97,5.9-3.86c2.41-0.88,5.32-1.33,8.73-1.33
	c2.69,0,5.15,0.31,7.4,0.93c2.24,0.62,4.18,1.67,5.8,3.15c1.62,1.48,2.88,3.43,3.76,5.85C310.5,132.3,310.94,135.33,310.94,138.96z
	 M291.92,151.6c1.11,0,2.11-0.16,2.98-0.49c0.87-0.33,1.6-0.93,2.19-1.82c0.59-0.89,1.03-2.13,1.33-3.74
	c0.3-1.61,0.44-3.69,0.44-6.24c0-2.66-0.15-4.83-0.44-6.52c-0.3-1.69-0.7-3.01-1.21-3.98c-0.51-0.97-1.13-1.63-1.87-1.99
	c-0.74-0.36-1.55-0.54-2.43-0.54c-1.11,0-2.11,0.17-2.98,0.52c-0.87,0.34-1.61,0.94-2.21,1.79c-0.6,0.85-1.07,2-1.38,3.44
	c-0.31,1.44-0.47,3.26-0.47,5.46c0,3.01,0.15,5.45,0.44,7.3c0.3,1.85,0.71,3.28,1.25,4.28s1.18,1.67,1.92,2.01
	C290.22,151.43,291.04,151.6,291.92,151.6z M349.44,157.6c-1.83,0-3.4-0.24-4.69-0.71c-1.3-0.47-2.36-1.11-3.2-1.92
	c-0.84-0.8-1.44-1.75-1.82-2.83c-0.38-1.08-0.57-2.23-0.57-3.44v-2.71c0-1.15-0.06-2.08-0.17-2.8c-0.11-0.72-0.31-1.28-0.59-1.67
	s-0.67-0.65-1.18-0.79c-0.5-0.13-1.15-0.2-1.94-0.2h-3.89v9.29c0,1.51,1.82,2.26,5.46,2.26v5.16l-22.27,0v-5.11
	c2.91,0,4.38-0.75,4.38-2.27l0-21.72c0-1.51-1.46-2.26-4.38-2.26v-5.16l25.61,0c1.61,0,3.18,0.11,4.72,0.32
	c1.54,0.21,2.91,0.65,4.11,1.3c1.2,0.66,2.15,1.58,2.88,2.78c0.72,1.2,1.08,2.78,1.08,4.74c0,1.28-0.2,2.4-0.59,3.37
	c-0.4,0.97-0.91,1.8-1.55,2.48c-0.64,0.69-1.37,1.25-2.19,1.67c-0.82,0.43-1.67,0.74-2.55,0.93c1.77,0.46,3.13,1.31,4.08,2.56
	c0.95,1.25,1.43,3.14,1.43,5.67v3.4c0,0.72,0.15,1.26,0.44,1.61c0.29,0.35,0.67,0.52,1.13,0.52c0.49,0,0.89-0.17,1.18-0.52
	c0.3-0.35,0.44-0.89,0.44-1.61v-2.39l3.59,0v2.26c0,1.08-0.17,2.1-0.51,3.05c-0.35,0.95-0.89,1.77-1.62,2.46
	c-0.74,0.69-1.66,1.24-2.78,1.65C352.36,157.39,351.01,157.6,349.44,157.6z M331.4,135.62h4.47c0.89,0,1.61-0.08,2.19-0.25
	c0.57-0.16,1.03-0.43,1.38-0.81c0.34-0.38,0.58-0.89,0.71-1.52c0.13-0.64,0.2-1.43,0.2-2.39c0-1.11-0.31-1.98-0.93-2.61
	c-0.62-0.62-1.81-0.93-3.54-0.93l-4.47,0V135.62z M383.21,125.89c-2.91,0-4.37,0.75-4.37,2.26v21.68c0,1.51,1.46,2.26,4.37,2.26
	v5.16h-21.24v-5.16c2.95,0,4.42-0.75,4.42-2.26v-21.68c0-1.51-1.48-2.26-4.42-2.26v-5.16l21.24,0V125.89z M387.4,138.72
	c0-3.37,0.48-6.25,1.45-8.63c0.97-2.38,2.25-4.32,3.84-5.83c1.59-1.51,3.41-2.61,5.45-3.29c2.05-0.69,4.16-1.03,6.32-1.03
	c4.69,0,8.19,0.88,10.52,2.66l0.98-1.87l6,0v11.95l-6.34,0.49c-0.66-4.72-3.03-7.08-7.13-7.08c-1.54,0-2.84,0.24-3.91,0.71
	c-1.07,0.47-1.93,1.23-2.58,2.26c-0.66,1.03-1.12,2.34-1.41,3.93c-0.28,1.59-0.41,3.5-0.41,5.73c0,2.85,0.17,5.1,0.51,6.73
	c0.34,1.64,0.85,2.88,1.52,3.71c0.67,0.84,1.48,1.36,2.43,1.57c0.95,0.21,2.01,0.32,3.2,0.32c0.85,0,1.68-0.07,2.48-0.2
	c0.8-0.13,1.51-0.35,2.14-0.66c0.62-0.31,1.12-0.71,1.5-1.2c0.38-0.49,0.57-1.08,0.57-1.77v-2.16c0-1.51-1.48-2.26-4.42-2.26v-5.16
	l17.3,0v5.16c-2.95,0-4.42,0.75-4.42,2.26v12.19h-7.23l-0.99-2.51c-0.26,0.39-0.67,0.78-1.23,1.15c-0.56,0.38-1.27,0.73-2.14,1.06
	c-0.87,0.33-1.91,0.59-3.14,0.79c-1.23,0.2-2.63,0.3-4.21,0.3c-1.97,0-3.94-0.3-5.92-0.91c-1.98-0.6-3.77-1.65-5.36-3.15
	c-1.59-1.49-2.88-3.47-3.88-5.95S387.4,142.46,387.4,138.72z M452.34,125.89c-2.91,0-4.37,0.75-4.37,2.26l0,21.68
	c0,1.51,1.46,2.26,4.37,2.26v5.16l-21.24,0v-5.16c2.95,0,4.42-0.75,4.42-2.26v-21.68c0-1.51-1.48-2.26-4.42-2.26v-5.16l21.24,0
	L452.34,125.89z M498.65,125.89c-2.91,0-4.38,0.75-4.38,2.26l0,29.11h-14.7l-12.29-25.56v18.14c0,1.51,1.46,2.26,4.37,2.26v5.16
	l-15.14,0v-5.16c2.91,0,4.38-0.75,4.38-2.26v-21.68c0-1.51-1.46-2.26-4.38-2.26v-5.16l18.73,0l12.64,26.25l0-18.83
	c0-1.51-1.46-2.26-4.38-2.26v-5.16l15.14,0V125.89z M501.75,152.09c1.48,0,2.51-0.12,3.1-0.37c0.59-0.25,0.99-0.6,1.18-1.05
	l9.74-29.94h12.68l9.04,29.89c0.4,0.98,1.71,1.47,3.93,1.47v5.16h-21.44v-5.16h3.25c0.95,0,1.42-0.28,1.42-0.84
	c0-0.1-0.01-0.2-0.05-0.3c-0.03-0.1-0.07-0.21-0.1-0.34l-0.74-2.61l-11.5,0l-0.69,2.21c-0.1,0.26-0.15,0.49-0.15,0.69
	c0,0.79,0.74,1.18,2.21,1.18h2.61v5.16l-14.46,0L501.75,152.09z M513.79,143h8.6l-4.03-14.75L513.79,143z M549.44,149.83v-21.68
	c0-1.51-1.46-2.26-4.38-2.26v-5.16l22.27,0v5.16c-3.64,0-5.46,0.75-5.46,2.26v22.96h7.18c1.71,0,3.03-0.65,3.98-1.94
	c0.95-1.3,1.56-3.38,1.82-6.27l5.51,0.34l-1.18,14.01l-34.12,0v-5.16C547.97,152.09,549.44,151.34,549.44,149.83z M582.76,203.64
	c0.07,0.09,0.11,0.22,0.11,0.37c0,0.27-0.04,0.46-0.11,0.55c-0.07,0.1-0.21,0.14-0.4,0.14h-0.51v-1.21h0.51
	C582.55,203.51,582.69,203.55,582.76,203.64z M104.78,205.64c0.35,1.99,0.52,4.54,0.52,7.67c0,3.01-0.18,5.46-0.52,7.35
	c-0.35,1.89-0.87,3.36-1.56,4.4c-0.69,1.04-1.55,1.76-2.57,2.14c-1.02,0.39-2.19,0.58-3.51,0.58c-1.04,0-2-0.2-2.86-0.61
	c-0.87-0.41-1.62-1.19-2.26-2.37c-0.64-1.18-1.13-2.86-1.48-5.04c-0.34-2.18-0.52-5.05-0.52-8.6c0-2.59,0.19-4.73,0.55-6.43
	c0.37-1.7,0.91-3.05,1.62-4.05c0.71-1,1.58-1.71,2.6-2.11c1.02-0.41,2.19-0.61,3.5-0.61c1.04,0,2,0.21,2.87,0.64
	c0.87,0.43,1.6,1.21,2.2,2.34C103.96,202.09,104.43,203.65,104.78,205.64z M511.01,205.64c0.34,1.99,0.52,4.54,0.52,7.67
	c0,3.01-0.18,5.46-0.52,7.35c-0.35,1.89-0.87,3.36-1.57,4.4c-0.69,1.04-1.55,1.76-2.57,2.14c-1.02,0.39-2.19,0.58-3.5,0.58
	c-1.04,0-2-0.2-2.86-0.61c-0.87-0.41-1.62-1.19-2.26-2.37c-0.63-1.18-1.13-2.86-1.47-5.04c-0.35-2.18-0.52-5.05-0.52-8.6
	c0-2.59,0.19-4.73,0.55-6.43c0.36-1.7,0.91-3.05,1.62-4.05c0.71-1,1.58-1.71,2.6-2.11c1.02-0.41,2.19-0.61,3.51-0.61
	c1.04,0,2,0.21,2.87,0.64c0.87,0.43,1.6,1.21,2.2,2.34C510.19,202.09,510.66,203.65,511.01,205.64z M584.95,202.45
	c-0.37-0.33-0.79-0.58-1.26-0.76c-0.47-0.18-0.96-0.26-1.46-0.26c-0.59,0-1.13,0.1-1.62,0.3c-0.49,0.2-0.91,0.47-1.26,0.82
	c-0.35,0.35-0.63,0.75-0.82,1.22s-0.29,0.97-0.29,1.51c0,0.61,0.11,1.16,0.34,1.63c0.23,0.48,0.52,0.88,0.89,1.22
	c0.37,0.33,0.79,0.59,1.27,0.76c0.48,0.17,0.97,0.26,1.48,0.26c0.66,0,1.23-0.12,1.73-0.35c0.49-0.23,0.9-0.53,1.23-0.89
	c0.32-0.36,0.57-0.77,0.73-1.23c0.17-0.46,0.25-0.92,0.25-1.39c0-0.6-0.11-1.14-0.33-1.61
	C585.61,203.19,585.32,202.78,584.95,202.45z M585.2,206.75c0,0.3-0.12,0.56-0.35,0.77c-0.23,0.21-0.53,0.32-0.89,0.32
	c-0.44,0-0.75-0.12-0.93-0.37c-0.18-0.24-0.27-0.54-0.27-0.89v-0.39c0-0.33-0.03-0.54-0.08-0.63c-0.06-0.09-0.18-0.14-0.38-0.14
	h-0.44v1.33c0,0.22,0.21,0.32,0.63,0.32v0.71h-2.6v-0.71c0.34,0,0.51-0.11,0.51-0.32v-3.09c0-0.22-0.17-0.32-0.51-0.32v-0.73h2.98
	c0.19,0,0.38,0.01,0.56,0.04c0.18,0.03,0.34,0.09,0.48,0.18c0.14,0.09,0.25,0.22,0.33,0.39c0.08,0.17,0.13,0.4,0.13,0.68
	c0,0.36-0.08,0.64-0.24,0.83c-0.17,0.19-0.35,0.32-0.55,0.37c0.21,0.07,0.37,0.19,0.48,0.37c0.11,0.18,0.17,0.45,0.17,0.81v0.46
	c0,0.22,0.08,0.33,0.24,0.33s0.24-0.11,0.24-0.32v-0.32h0.51V206.75z"/>
<g>
	<path class="st0" d="M454.61,540.22c-1.39,2.92-2.57,5.97-4.21,8.75c-3.86,6.57-7.11,13.75-12.13,19.32
		c-6.81,7.57-17.34,5.12-22.17-3.88c-5.86-10.91-5.15-22.28-2.02-33.56c3.74-13.48,9.48-26.06,21.02-34.93
		c4.31-3.31,9.05-5.89,14.92-3.68c0.5,0.19,1.59-0.97,2.31-1.61c1.99-1.75,3.66-4.16,5.96-5.2c4.23-1.91,6.88,0.86,6.74,5.46
		c-0.41,13.08-0.44,26.16-0.55,39.25c-0.01,1.18,0.31,2.48,0.87,3.51c1.38,2.52,2.99,4.91,4.51,7.35c2.04-2.17,4.53-4.06,6.02-6.55
		c5.14-8.59,3.76-18.49,5-27.84c1.39-10.47,2.11-21.02,3.2-31.52c0.53-5.11,3.41-8.51,7.83-11.1c3.76-2.2,5.32-0.63,5.52,2.78
		c0.22,3.79-0.26,7.62-0.47,11.42c-0.09,1.75-0.26,3.5-0.31,4.13c3.88-7.28,7.93-15.46,12.61-23.27c1.57-2.61,4.51-4.69,7.25-6.27
		c6.35-3.64,12.34-0.38,12.04,6.85c-0.34,7.93-1.94,15.8-2.67,23.73c-0.74,8.06-1.27,16.15-1.45,24.24
		c-0.04,1.75,1.53,4.81,2.75,5.02c2.03,0.35,5.57-0.46,6.39-1.93c3.45-6.21,8.17-12.68,8.74-19.35c2.78-32.68,4.41-65.45,6.34-98.2
		c0.44-7.53,1.2-13.54,5.31-17.57c4.11-4.02,5.05-5.32,6.72-4.95c1.67,0.37,1.84,3.5,1.78,5.21c-0.35,8.73-0.99,17.46-1.61,26.18
		c-1.47,20.65-3,41.3-4.46,61.95c-0.07,0.93,0.4,1.89,0.62,2.84c0.57-0.66,1.29-1.25,1.68-2.01c5.21-10.19,10.48-20.36,15.46-30.67
		c0.78-1.62,0.47-3.93,0.22-5.86c-0.57-4.51,1.6-7.12,5.64-8.21c3.92-1.05,6.12,1.13,7.1,4.72c2.33,8.54-0.36,16.49-3.79,24.01
		c-3.36,7.37-7.65,14.34-11.85,21.29c-1.36,2.25-1.81,3.76,0.46,5.39c3.24,2.31,6.25,5.08,9.77,6.85
		c7.26,3.66,11.95,1.94,15.31-5.52c2.26-5.01,3.81-10.32,5.86-15.43c0.43-1.07,0.81-2.63,2.45-2.76c1.64-0.13,3.63,3.92,4.64,7.33
		c1.01,3.41,0.89,7-2.18,12.6c-3.11,5.67-6.31,11.88-11.11,15.89c-7.59,6.34-16.41,3.68-24.34-0.55c-4.59-2.45-8.78-5.63-13.15-8.49
		c-0.77-0.5-1.53-1.01-2.3-1.51c-0.32,0.97-0.9,1.92-0.93,2.9c-0.2,6.91-0.25,13.83-0.43,20.74c-0.16,6.19-2.43,8.4-8.63,7.55
		c-2.51-0.35-3.25,0.43-4.55,2.23c-3.52,4.86-8,8.78-14.36,8.99c-8.99,0.29-15.26-5.95-15.48-16.47c-0.2-9.57,0.88-19.17,1.45-28.76
		c0.13-2.15,0.62-4.28,0.74-6.43c0.08-1.43-0.2-2.88-0.33-4.32c-0.92,1.06-2.21,1.98-2.71,3.21c-3.27,7.94-6.89,15.79-9.39,23.97
		c-4.04,13.18-7.4,26.57-10.84,39.92c-0.89,3.47-2.29,5.75-6.06,6.61c-1.69,0.39-3.3,1.92-4.56,3.3c-4.34,4.74-9,8.88-16,6.61
		c-6.54-2.12-9.5-7.24-10.13-13.86c-0.07-0.04-0.12-0.08-0.18-0.12C454.52,540.04,454.57,540.13,454.61,540.22z M450.3,500.04
		c-0.84,0.13-1.59,0.03-2.04,0.35c-2,1.41-4.18,2.68-5.81,4.45c-12.33,13.4-16.18,29.77-16.27,47.31c-0.01,2.01,1.59,4.01,2.45,6.02
		c1.53-1.44,3.5-2.63,4.51-4.37c9.22-15.81,14.09-33.07,16.76-51.03C450.01,502.01,450.12,501.26,450.3,500.04z"/>
	<path class="st0" d="M374.56,530.55c9.57-2.31,17.92-3.63,25.98,0.69c8.44,4.52,11.87,13.64,8.69,25.22
		c-5.97,21.74-27.93,43.08-51.69,46.3c-6.18,0.84-11.94-0.18-16.32-6.23c-0.36,4.73-0.71,8.96-0.98,13.19
		c-0.33,5.17-2.92,7.99-7.48,8.03c-4.37,0.04-7.25-2.55-7.27-7.76c-0.03-8.43,0.02-16.92,0.99-25.28
		c2.92-24.98,6.51-49.89,9.37-74.88c0.88-7.69,4.98-11.74,11.59-14.45c3.09-1.26,3.88-0.43,3.51,2.67
		c-1.49,12.61-2.91,25.24-4.31,37.86c-0.11,0.96,0.18,1.96,0.29,2.94c0.75-0.42,1.62-0.71,2.22-1.29
		c12.9-12.46,24.55-25.83,31.23-42.79c0.5-1.26,0.85-2.6,1.12-3.93c1.88-9.3-3.35-14.49-12.53-12.07
		c-17.32,4.57-31.18,14.55-42.22,28.39c-3.72,4.66-6.72,9.93-9.67,15.13c-1.58,2.78-1.81,5.55,0.97,3.16
		c2.78-2.39,2.75,1.45,1.23,3.78c-1.52,2.34-5.93,6.81-10.39,6.38c-4.67-0.45-8.28-4.72-8.18-10c0.18-10.13,5.61-18.09,11.65-25.47
		c15.18-18.54,33.85-31.94,58.08-35.62c19.73-3,31.94,11.96,25.96,31c-3.8,12.11-10.97,22.17-19.16,31.63
		C376.56,527.94,375.95,528.78,374.56,530.55z M341.44,585.49c3.06-2.48,5.41-4.61,8-6.38c1.17-0.8,4.91-2.66,4.27-1.32
		c-2.8,5.8-1.45,7.38,0.06,8.69s7.66,1.72,16.86-4.29c9.2-6,16.28-11.61,22.22-26.66c3.75-9.51,0.52-14.66-9.6-13.46
		c-7.32,0.87-14.26,4.6-21.56,6.14c-6.25,1.32-9.03,9.85-16.75,7.58c-0.06-0.02-0.66,1.23-0.73,1.92
		C343.26,566.85,342.38,575.99,341.44,585.49z"/>
	<path class="st0" d="M454.61,540.22c-0.04-0.09-0.09-0.18-0.13-0.27c0.06,0.04,0.12,0.09,0.18,0.12
		C454.66,540.07,454.61,540.22,454.61,540.22z"/>
</g>
<rect x="576.87" y="197.97" class="st0" width="14.15" height="20.66"/>
</svg>
